<svg id="visual" viewBox="0 0 2560 1440" width="2560" height="1440" xmlns="http://www.w3.org/2000/svg" xmlns:xlink="http://www.w3.org/1999/xlink" version="1.1"><g><g transform="translate(1596 1022)"><path d="M111.4 -40.8C126.3 9.5 107.7 66.1 66.1 98.1C24.4 130 -40.3 137.3 -86.6 106.7C-132.9 76 -160.6 7.4 -143.1 -46.6C-125.6 -100.6 -62.8 -140 -7.3 -137.6C48.3 -135.2 96.5 -91.1 111.4 -40.8Z" fill="none" stroke="#eeeeee" stroke-width="20"></path></g><g transform="translate(2002 1066)"><path d="M15.9 -6.1C17.4 -0.3 13.5 6.4 8.1 10C2.8 13.6 -4 14.2 -8.5 11C-13.1 7.9 -15.5 1 -13.7 -5C-11.9 -11.1 -5.9 -16.3 0.6 -16.5C7.1 -16.7 14.3 -11.8 15.9 -6.1Z" fill="none" stroke="#eeeeee" stroke-width="20"></path></g><g transform="translate(1354 491)"><path d="M32.4 -9.1C38 6.6 35.7 26.3 24.6 34.5C13.6 42.6 -6.3 39.3 -21.5 28.5C-36.8 17.7 -47.5 -0.6 -43.2 -14.6C-38.8 -28.6 -19.4 -38.4 -3 -37.4C13.4 -36.4 26.9 -24.8 32.4 -9.1Z" fill="none" stroke="#eeeeee" stroke-width="20"></path></g><g transform="translate(2338 310)"><path d="M108.4 -32.1C124.5 14.2 110.4 73.4 73.1 100.4C35.9 127.4 -24.6 122.2 -67.2 91.5C-109.8 60.7 -134.6 4.5 -120.4 -39.2C-106.3 -82.8 -53.1 -113.9 -3.5 -112.7C46.2 -111.6 92.4 -78.3 108.4 -32.1Z" fill="none" stroke="#eeeeee" stroke-width="20"></path></g><g transform="translate(953 334)"><path d="M21.2 -6.5C24.1 2.1 20.9 13.2 13.5 18.5C6.1 23.9 -5.4 23.5 -12.6 18.1C-19.9 12.6 -23 2.1 -20.2 -6.4C-17.4 -14.8 -8.7 -21.1 0.2 -21.2C9.1 -21.2 18.3 -15.1 21.2 -6.5Z" fill="none" stroke="#eeeeee" stroke-width="20"></path></g><g transform="translate(412 506)"><path d="M23.8 -9.2C26.8 1.3 22.2 12.9 13.8 19C5.4 25.1 -6.9 25.8 -14.8 20.1C-22.6 14.5 -26 2.4 -22.8 -8.5C-19.6 -19.4 -9.8 -29.2 0.3 -29.3C10.4 -29.4 20.9 -19.8 23.8 -9.2Z" fill="none" stroke="#eeeeee" stroke-width="20"></path></g><g transform="translate(1829 349)"><path d="M13.9 -5.8C15.6 0.7 12.9 7.4 8 10.8C3.2 14.3 -3.8 14.6 -8.2 11.3C-12.7 8.1 -14.6 1.4 -12.8 -5.3C-11 -12 -5.5 -18.7 0.3 -18.8C6.1 -18.9 12.2 -12.4 13.9 -5.8Z" fill="none" stroke="#eeeeee" stroke-width="20"></path></g><g transform="translate(820 896)"><path d="M79.8 -24C89.4 3.5 73.4 41.3 45.5 61.3C17.6 81.2 -22.3 83.4 -44.5 66.1C-66.6 48.9 -71.1 12.2 -60.7 -16.4C-50.3 -45 -25.2 -65.5 5 -67.1C35.1 -68.7 70.2 -51.5 79.8 -24Z" fill="none" stroke="#eeeeee" stroke-width="20"></path></g><g transform="translate(379 1086)"><path d="M33.9 -8.5C39.8 7.1 37.6 27.9 25.9 36.6C14.3 45.3 -6.8 41.8 -22.8 30.4C-38.9 19 -49.8 -0.3 -45.1 -14.3C-40.5 -28.3 -20.2 -36.8 -3.1 -35.8C14 -34.8 28 -24.2 33.9 -8.5Z" fill="none" stroke="#eeeeee" stroke-width="20"></path></g><g transform="translate(1129 1185)"><path d="M45.6 -12.1C51.8 4.6 44.8 28.3 29.6 38.9C14.4 49.5 -9 47 -24.2 35.4C-39.5 23.8 -46.7 3.2 -41.3 -12.2C-35.9 -27.6 -18 -37.8 0.8 -38C19.6 -38.3 39.3 -28.7 45.6 -12.1Z" fill="none" stroke="#eeeeee" stroke-width="20"></path></g><g transform="translate(2328 721)"><path d="M23.9 -6.1C27.3 2.7 23.9 15.5 15.5 21.6C7.1 27.8 -6.2 27.4 -13.5 21.4C-20.7 15.5 -21.8 4 -18.5 -4.6C-15.3 -13.2 -7.6 -19 1.3 -19.4C10.2 -19.8 20.5 -14.9 23.9 -6.1Z" stroke="#eeeeee" fill="none" stroke-width="20"></path></g></g></svg>